{"title":"Men in Black 3 (2012) DVDRip XviD-MAX","uid":7594054,"size":1430157184,"categoryP":"video","categoryS":"movies","magnet":"?xt=urn:btih:6dc9c40745e597cbe2571958c7932041987d6c5a&amp;dn=Men+in+Black+3+%282012%29+DVDRip+XviD-MAX&amp;tr=udp%3A%2F%2Ftracker.openbittorrent.com%3A80&amp;tr=udp%3A%2F%2Fopen.demonii.com%3A1337&amp;tr=udp%3A%2F%2Ftracker.coppersurfer.tk%3A6969&amp;tr=udp%3A%2F%2Fexodus.desync.com%3A6969","seeders":1,"leechers":0,"uploader":"extremezone","files":-1,"time":1346633897,"description":" &lt;a href=&quot;http://leetleech.org/images/03271023351726837223.jpg&quot; rel=&quot;nofollow&quot; target=&quot;_NEW&quot;&gt;http://leetleech.org/images/03271023351726837223.jpg&lt;/a&gt;\n\nScreens:\n &lt;a href=&quot;\nhttp://leetleech.org/images/91925463297831240727.jpg&quot; rel=&quot;nofollow&quot; target=&quot;_NEW&quot;&gt;\nhttp://leetleech.org/images/91925463297831240727.jpg&lt;/a&gt; &lt;a href=&quot;\nhttp://leetleech.org/images/94618366948134547633.jpg&quot; rel=&quot;nofollow&quot; target=&quot;_NEW&quot;&gt;\nhttp://leetleech.org/images/94618366948134547633.jpg&lt;/a&gt; &lt;a href=&quot;\nhttp://leetleech.org/images/95267855801840941394.jpg&quot; rel=&quot;nofollow&quot; target=&quot;_NEW&quot;&gt;\nhttp://leetleech.org/images/95267855801840941394.jpg&lt;/a&gt; &lt;a href=&quot;\nhttp://leetleech.org/images/56239824086793063124.jpg&quot; rel=&quot;nofollow&quot; target=&quot;_NEW&quot;&gt;\nhttp://leetleech.org/images/56239824086793063124.jpg&lt;/a&gt;\n\nAlternative:\n &lt;a href=&quot;\nhttp://www.postimg.com/image/83000/photo-82294.jpg&quot; rel=&quot;nofollow&quot; target=&quot;_NEW&quot;&gt;\nhttp://www.postimg.com/image/83000/photo-82294.jpg&lt;/a&gt; &lt;a href=&quot;\nhttp://www.postimg.com/image/83000/photo-82295.jpg&quot; rel=&quot;nofollow&quot; target=&quot;_NEW&quot;&gt;\nhttp://www.postimg.com/image/83000/photo-82295.jpg&lt;/a&gt; &lt;a href=&quot;\nhttp://www.postimg.com/image/83000/photo-82296.jpg&quot; rel=&quot;nofollow&quot; target=&quot;_NEW&quot;&gt;\nhttp://www.postimg.com/image/83000/photo-82296.jpg&lt;/a&gt; &lt;a href=&quot;\nhttp://www.postimg.com/image/83000/photo-82297.jpg&quot; rel=&quot;nofollow&quot; target=&quot;_NEW&quot;&gt;\nhttp://www.postimg.com/image/83000/photo-82297.jpg&lt;/a&gt;\n\nScreenCaps:\n &lt;a href=&quot;\nhttp://www.postimg.com/image/83000/photo-82300.jpg&quot; rel=&quot;nofollow&quot; target=&quot;_NEW&quot;&gt;\nhttp://www.postimg.com/image/83000/photo-82300.jpg&lt;/a&gt;\n\nMen in Black 3 (2012) DVDRip XviD-MAX\nFormat                                   : AVI\nFormat/Info                              : Audio Video Interleave\nFormat profile                           : OpenDML\nFormat settings                          : rec\nFile size                                : 1.32 GiB\nDuration                                 : 1h 45mn\nOverall bit rate                         : 1 791 Kbps\nWriting application                      : VirtualDubMod 1.5.10.2 (build 2542/release)\nWriting library                          : VirtualDubMod build 2542/release\nOriginal source form                     : MAX TORRENTZ\nCopyright                                : SIGISMUNT\n\nVideo\nID                                       : 0\nFormat                                   : MPEG-4 Visual\nFormat profile                           : Advanced Simple@L5\nFormat settings, BVOP                    : 2\nFormat settings, QPel                    : No\nFormat settings, GMC                     : No warppoints\nFormat settings, Matrix                  : Default (MPEG)\nCodec ID                                 : XVID\nCodec ID/Hint                            : XviD\nDuration                                 : 1h 45mn\nBit rate                                 : 1 402 Kbps\nWidth                                    : 720 pixels\nHeight                                   : 384 pixels\nDisplay aspect ratio                     : 1.85:1\nFrame rate                               : 23.976 fps\nColor space                              : YUV\nChroma subsampling                       : 4:2:0\nBit depth                                : 8 bits\nScan type                                : Progressive\nCompression mode                         : Lossy\nBits/(Pixel*Frame)                       : 0.211\nStream size                              : 1.04 GiB (78%)\n\nAudio\nID                                       : 1\nFormat                                   : AC-3\nFormat/Info                              : Audio Coding 3\nMode extension                           : CM (complete main)\nFormat settings, Endianness              : Big\nCodec ID                                 : 2000\nDuration                                 : 1h 45mn\nBit rate mode                            : Constant\nBit rate                                 : 384 Kbps\nChannel(s)                               : 6 channels\nChannel positions                        : Front: L C R, Side: L R, LFE\nSampling rate                            : 48.0 KHz\nBit depth                                : 16 bits\nCompression mode                         : Lossy\nStream size                              : 291 MiB (21%)\nAlignment                                : Aligned on interleaves\nInterleave, duration                     : 64 ms (1.53 video frames)\nInterleave, preload duration             : 192 ms","torrent":{"xt":"urn:btih:6dc9c40745e597cbe2571958c7932041987d6c5a","amp;dn":"Men+in+Black+3+%282012%29+DVDRip+XviD-MAX","amp;tr":["udp%3A%2F%2Ftracker.openbittorrent.com%3A80","udp%3A%2F%2Fopen.demonii.com%3A1337","udp%3A%2F%2Ftracker.coppersurfer.tk%3A6969","udp%3A%2F%2Fexodus.desync.com%3A6969"],"infoHash":"6dc9c40745e597cbe2571958c7932041987d6c5a","infoHashBuffer":{"type":"Buffer","data":[109,201,196,7,69,229,151,203,226,87,25,88,199,147,32,65,152,125,108,90]},"announce":[],"urlList":[]}}